<?xml version="1.0" standalone="no"?>
<!DOCTYPE svg PUBLIC "-//W3C//DTD SVG 20010904//EN"
 "http://www.w3.org/TR/2001/REC-SVG-20010904/DTD/svg10.dtd">
<svg version="1.0" xmlns="http://www.w3.org/2000/svg"
 width="512.000000pt" height="512.000000pt" viewBox="0 0 512.000000 512.000000"
 preserveAspectRatio="xMidYMid meet">

<g transform="translate(0.000000,512.000000) scale(0.100000,-0.100000)"
fill="#000000" stroke="none">
<path d="M1065 5093 c-92 -48 -124 -111 -125 -240 l0 -93 -217 0 c-249 0 -305
-9 -417 -67 -147 -76 -269 -243 -296 -403 -8 -46 -10 -619 -8 -1945 l3 -1880
26 -66 c14 -37 38 -88 54 -115 42 -72 140 -164 221 -206 138 -73 -27 -68 2254
-68 2281 0 2116 -5 2254 68 129 67 231 191 282 342 18 53 19 125 19 1965 0
1840 -1 1912 -19 1965 -68 201 -225 349 -417 395 -47 11 -123 15 -281 15
l-218 0 0 93 c0 68 -5 102 -19 132 -65 141 -251 168 -348 50 -38 -46 -53 -101
-53 -199 l0 -76 -260 0 -260 0 0 90 c0 59 -5 104 -16 128 -60 145 -248 176
-351 59 -41 -46 -53 -91 -53 -194 l0 -83 -260 0 -260 0 0 83 c0 103 -12 148
-53 194 -101 115 -283 88 -348 -52 -14 -30 -19 -64 -19 -132 l0 -93 -260 0
-260 0 0 76 c0 41 -5 95 -11 118 -14 56 -62 114 -113 137 -50 23 -130 24 -171
2z m158 -123 l27 -30 0 -349 0 -349 -26 -31 c-50 -59 -140 -46 -170 24 -21 51
-21 660 1 711 28 68 116 80 168 24z m940 0 l27 -30 0 -354 0 -353 -26 -26
c-48 -48 -115 -45 -156 7 -16 19 -18 54 -17 376 0 384 -2 375 55 405 39 21 83
12 117 -25z m900 31 c14 -6 35 -20 46 -32 21 -22 21 -31 21 -378 0 -322 -2
-358 -18 -377 -41 -52 -108 -55 -156 -7 l-26 26 0 352 c0 345 0 353 21 379 33
42 69 53 112 37z m973 -16 c13 -8 28 -32 33 -52 14 -51 14 -636 0 -686 -22
-79 -116 -99 -171 -37 l-28 30 0 349 c0 341 0 349 21 375 38 48 93 56 145 21z
m-3096 -356 c0 -24 -13 -45 -54 -90 -110 -118 -133 -277 -61 -419 27 -53 105
-129 161 -158 179 -91 403 -12 495 175 20 41 24 63 24 148 0 93 -2 105 -33
167 -18 36 -50 82 -72 102 -32 29 -40 43 -40 71 l0 35 260 0 260 0 0 -33 c0
-26 -11 -44 -54 -88 -70 -73 -99 -145 -99 -249 0 -98 29 -173 93 -243 117
-128 280 -158 437 -81 68 33 146 118 173 190 21 58 28 161 15 219 -13 53 -67
144 -106 180 -31 28 -39 42 -39 70 l0 35 260 0 260 0 0 -36 c0 -27 -7 -41 -30
-61 -110 -92 -152 -267 -99 -409 31 -81 121 -172 204 -204 215 -83 452 50 495
279 21 111 -24 245 -107 322 -35 32 -43 46 -43 74 l0 35 260 0 260 0 0 -35 c0
-28 -8 -42 -40 -71 -22 -20 -54 -66 -72 -102 -31 -62 -33 -74 -33 -167 0 -91
3 -105 30 -158 72 -144 240 -228 393 -196 77 15 128 42 185 98 147 141 152
358 11 510 -41 45 -54 66 -54 90 l0 31 203 0 c143 0 220 -5 265 -15 161 -38
285 -151 343 -311 20 -54 22 -85 27 -336 l4 -278 -2462 0 -2462 0 4 278 c5
251 7 282 27 336 57 158 182 272 339 310 38 10 124 15 265 15 l207 1 0 -31z
m29 -456 c69 -120 241 -139 331 -36 45 50 52 75 59 193 l7 105 19 -40 c27 -58
26 -167 -2 -220 -85 -160 -293 -194 -417 -69 -77 76 -98 201 -50 299 l19 40 5
-115 c4 -98 9 -121 29 -157z m933 12 c38 -70 112 -115 188 -115 61 0 115 25
158 74 40 46 52 91 52 206 l1 95 22 -40 c30 -56 31 -173 0 -231 -83 -157 -295
-192 -418 -69 -73 74 -95 190 -54 286 l24 54 5 -115 c4 -79 10 -124 22 -145z
m940 0 c70 -130 240 -154 340 -48 45 47 58 92 59 205 l1 103 24 -50 c20 -41
24 -62 21 -115 -7 -141 -101 -238 -240 -248 -101 -8 -201 49 -250 142 -29 56
-30 164 -2 226 l20 45 6 -115 c3 -77 10 -125 21 -145z m1376 186 c30 -88 4
-197 -64 -265 -124 -125 -332 -90 -417 69 -28 53 -29 162 -2 220 l19 40 6
-105 c8 -120 22 -162 73 -207 104 -91 261 -62 322 60 22 45 25 64 25 156 0 91
2 103 13 86 8 -11 19 -35 25 -54z m800 -2318 l-3 -1558 -23 -59 c-62 -164
-189 -277 -349 -311 -102 -22 -4064 -22 -4166 0 -160 34 -287 147 -349 311
l-23 59 -3 1558 -3 1557 2461 0 2461 0 -3 -1557z"/>
<path d="M3047 3066 c-115 -21 -212 -53 -308 -102 -238 -123 -374 -317 -423
-606 l-7 -38 320 0 320 0 12 42 c38 143 121 199 294 199 99 -1 138 -9 191 -41
50 -31 74 -85 74 -164 0 -54 -4 -69 -25 -94 -46 -55 -90 -65 -287 -70 l-178
-4 0 -263 0 -263 198 -4 c180 -3 201 -5 247 -26 97 -44 134 -104 135 -213 0
-173 -122 -258 -355 -246 -192 10 -287 72 -336 222 l-16 50 -322 3 -323 2 7
-52 c21 -151 94 -324 186 -435 213 -260 629 -372 1099 -297 377 61 628 265
701 570 27 112 23 272 -10 375 -36 115 -124 229 -229 299 -24 16 -49 31 -55
33 -7 3 6 20 28 38 135 114 195 242 195 419 0 110 -21 194 -71 291 -93 178
-273 301 -528 361 -113 26 -419 34 -534 14z m378 -96 c376 -44 608 -222 647
-497 28 -207 -56 -373 -231 -454 -70 -33 -71 -34 -71 -72 0 -27 5 -39 18 -44
9 -3 53 -23 97 -43 214 -102 316 -313 272 -565 -52 -296 -293 -483 -692 -536
-116 -15 -385 -6 -485 16 -229 51 -405 168 -509 339 -35 59 -93 214 -85 228 3
4 102 8 220 8 l215 0 18 -42 c58 -134 187 -217 366 -237 181 -21 324 17 416
108 69 69 93 132 93 241 0 106 -24 172 -88 235 -81 80 -200 114 -403 115 l-93
0 0 153 0 154 123 6 c160 8 242 32 301 90 56 53 82 131 72 219 -17 162 -136
261 -331 275 -192 13 -344 -60 -407 -196 l-23 -51 -212 0 -213 0 0 23 c1 34
51 146 98 214 161 237 500 357 887 313z"/>
<path d="M1395 2980 c-118 -119 -294 -220 -460 -263 l-85 -22 0 -248 0 -249
68 7 c91 9 261 42 313 60 23 8 43 15 45 15 2 0 4 -358 4 -795 l0 -795 320 0
320 0 0 1175 0 1175 -233 0 -233 0 -59 -60z m425 -1120 l0 -1070 -215 0 -215
0 0 825 c0 454 -2 825 -5 825 -3 0 -25 -10 -47 -21 -85 -43 -287 -99 -358 -99
l-31 0 3 146 3 146 70 22 c142 45 305 141 417 246 l53 49 163 1 162 0 0 -1070z"/>
</g>
</svg>
