<?xml version="1.0" standalone="no"?>
<!DOCTYPE svg PUBLIC "-//W3C//DTD SVG 20010904//EN"
 "http://www.w3.org/TR/2001/REC-SVG-20010904/DTD/svg10.dtd">
<svg version="1.0" xmlns="http://www.w3.org/2000/svg"
 width="512.000000pt" height="512.000000pt" viewBox="0 0 512.000000 512.000000"
 preserveAspectRatio="xMidYMid meet">

<g transform="translate(0.000000,512.000000) scale(0.100000,-0.100000)"
fill="#000000" stroke="none">
<path d="M3287 5109 c-658 -76 -1208 -535 -1395 -1165 -51 -170 -66 -280 -66
-474 1 -182 13 -280 54 -429 l21 -75 -934 -935 c-514 -515 -942 -950 -951
-968 -14 -28 -16 -90 -16 -488 0 -437 1 -457 20 -495 13 -26 34 -47 60 -60 38
-19 58 -20 491 -20 434 0 454 1 494 20 52 25 266 242 285 289 11 28 11 53 -1
163 -10 88 -11 131 -4 134 5 2 81 10 168 18 254 25 260 31 284 290 l17 177 25
-5 c14 -3 74 -10 133 -17 102 -11 108 -11 151 10 74 36 87 74 87 259 l0 152
149 0 c82 0 162 5 178 10 15 6 107 88 203 183 96 95 189 185 206 200 l31 28
94 -25 c156 -40 244 -50 429 -50 188 0 288 14 447 60 753 218 1248 964 1162
1752 -37 344 -188 678 -424 939 -344 380 -885 582 -1398 522z m796 -806 c90
-43 177 -129 220 -220 31 -65 32 -74 32 -188 0 -114 -1 -123 -32 -188 -43 -91
-129 -177 -220 -220 -65 -31 -74 -32 -188 -32 -114 0 -123 1 -188 32 -44 21
-89 53 -128 92 -39 39 -71 84 -92 128 -31 65 -32 74 -32 188 0 114 1 123 32
188 37 78 125 172 193 207 81 42 120 50 230 47 94 -2 112 -6 173 -34z"/>
</g>
</svg>
