<?xml version="1.0" standalone="no"?>
<!DOCTYPE svg PUBLIC "-//W3C//DTD SVG 20010904//EN"
 "http://www.w3.org/TR/2001/REC-SVG-20010904/DTD/svg10.dtd">
<svg version="1.0" xmlns="http://www.w3.org/2000/svg"
 width="1024.000000pt" height="1024.000000pt" viewBox="0 0 1024.000000 1024.000000"
 preserveAspectRatio="xMidYMid meet">

<g transform="translate(0.000000,1024.000000) scale(0.100000,-0.100000)"
fill="#000000" stroke="none">
<path d="M3978 8435 c-382 -54 -752 -176 -1048 -346 -149 -85 -258 -169 -370
-285 -150 -156 -205 -269 -205 -419 1 -68 5 -90 32 -147 39 -82 96 -141 176
-179 68 -32 149 -39 182 -16 16 12 16 18 7 47 -22 62 -14 129 26 226 99 237
304 442 563 563 46 22 96 43 112 46 54 14 42 -28 -153 -535 -56 -146 -133
-357 -172 -470 -67 -197 -138 -390 -310 -850 -177 -471 -178 -472 -137 -524
41 -52 73 -61 204 -60 255 2 375 47 375 139 0 47 51 220 119 400 187 501 182
490 258 513 56 17 76 15 107 -9 54 -42 72 -107 115 -404 46 -311 88 -440 176
-533 103 -111 256 -124 444 -41 88 40 225 133 289 195 43 43 52 59 52 87 0 57
-18 64 -115 43 -104 -21 -155 -11 -218 44 -59 52 -95 125 -157 319 -31 96 -76
210 -110 277 l-57 113 81 27 c339 113 637 311 807 537 144 192 249 489 236
672 -17 261 -224 457 -579 551 -98 26 -117 27 -368 30 -186 2 -294 -1 -362
-11z m461 -376 c109 -28 194 -87 232 -162 61 -118 18 -356 -94 -524 -180 -271
-418 -405 -799 -449 -54 -6 -58 -5 -58 15 0 11 14 58 31 103 17 46 61 166 99
268 69 189 264 670 301 742 l21 40 96 -7 c53 -4 130 -16 171 -26z"/>
<path d="M6090 8424 c-118 -20 -150 -29 -191 -50 -62 -31 -80 -58 -73 -104 4
-25 -4 -65 -29 -140 -89 -269 -199 -583 -338 -962 -83 -227 -170 -469 -194
-538 -24 -69 -102 -296 -175 -505 -147 -425 -156 -469 -106 -511 36 -32 87
-44 181 -44 85 0 243 21 286 38 59 23 87 59 104 135 34 152 223 720 296 890
44 104 59 123 108 137 44 12 496 42 571 38 52 -3 55 -4 52 -28 -2 -14 -26 -90
-54 -170 -226 -652 -241 -702 -246 -791 -5 -99 14 -149 71 -193 92 -71 347
-52 468 34 47 34 61 71 48 122 -21 78 32 269 207 748 62 170 184 511 279 775
26 72 71 200 100 285 29 85 89 252 133 370 126 339 132 372 84 420 -38 38 -88
50 -207 50 -129 -1 -244 -21 -300 -55 -52 -30 -65 -50 -65 -98 0 -46 -22 -117
-141 -447 -170 -470 -182 -501 -214 -535 -28 -30 -37 -33 -155 -48 -139 -19
-278 -33 -417 -43 -87 -6 -93 -5 -93 12 0 29 53 199 120 383 33 91 80 231 106
311 25 80 66 198 90 263 24 65 44 126 44 136 0 28 -37 69 -83 93 -33 17 -63
22 -142 24 -55 1 -111 1 -125 -2z"/>
<path d="M1765 5775 c-254 -48 -494 -194 -746 -451 -285 -292 -514 -652 -668
-1046 -130 -337 -196 -754 -157 -1006 31 -206 104 -362 225 -482 278 -276 730
-263 1166 34 103 70 279 235 368 346 148 184 288 429 383 672 l49 127 130 42
c72 22 159 54 194 70 34 16 61 23 58 16 -3 -6 -60 -140 -127 -297 -188 -438
-320 -796 -320 -865 0 -75 77 -136 198 -157 86 -14 194 0 223 29 10 10 39 74
64 143 61 165 193 475 265 625 143 297 381 567 522 590 37 7 44 5 65 -19 45
-53 37 -82 -105 -381 -268 -566 -301 -752 -158 -891 85 -82 193 -108 332 -80
147 31 268 105 446 275 l105 101 7 -38 c18 -112 125 -249 233 -300 81 -38 209
-43 319 -12 149 41 330 151 482 295 l71 66 -6 -89 c-7 -110 5 -151 62 -208 72
-72 181 -91 328 -58 137 31 261 100 405 224 44 38 83 70 85 70 3 0 -3 -28 -14
-62 -35 -117 -19 -171 65 -209 47 -21 165 -25 245 -8 63 13 87 41 131 146 42
102 179 418 242 561 156 350 415 642 570 642 32 0 40 -5 54 -32 30 -58 26 -69
-174 -493 -110 -234 -145 -325 -167 -435 -39 -194 9 -318 150 -382 40 -18 67
-22 140 -22 187 0 318 69 556 292 74 70 89 76 89 42 0 -10 16 -49 35 -87 87
-174 246 -256 500 -257 95 -1 137 4 202 22 171 46 337 133 492 255 227 181
471 472 471 562 0 40 -39 99 -67 103 -39 6 -81 -26 -230 -176 -343 -343 -600
-471 -779 -388 -80 37 -119 104 -112 190 l3 40 105 22 c240 50 477 187 681
393 105 107 175 211 222 329 26 66 30 91 31 172 1 117 -22 177 -94 244 -69 65
-106 78 -236 84 -130 5 -239 -13 -349 -59 -331 -138 -727 -591 -849 -971 -30
-96 -99 -200 -192 -295 -77 -77 -138 -115 -190 -116 -115 -3 -84 124 142 573
199 396 243 545 194 658 -26 60 -82 115 -149 146 -38 17 -64 21 -151 20 -120
-1 -201 -25 -323 -96 -69 -40 -242 -174 -286 -222 -14 -14 -28 -26 -32 -26 -4
0 8 35 27 78 37 85 41 119 19 161 -37 73 -127 111 -261 111 -96 0 -104 -6
-147 -112 -278 -678 -335 -791 -514 -1013 -93 -116 -166 -187 -243 -238 -77
-51 -111 -56 -145 -23 -25 25 -26 31 -20 79 4 29 21 88 38 132 49 131 257 571
351 743 93 171 105 209 86 267 -48 144 -287 205 -405 102 -32 -28 -38 -42 -55
-121 -42 -191 -286 -619 -500 -875 -207 -249 -369 -360 -506 -349 -94 8 -143
64 -152 175 -5 70 7 128 46 218 22 53 35 67 91 105 173 119 426 354 562 522
221 275 413 626 476 867 57 222 20 361 -112 422 -108 50 -312 -1 -460 -115
-315 -243 -587 -636 -810 -1171 -87 -207 -143 -359 -194 -521 -49 -154 -115
-263 -239 -396 -121 -128 -228 -173 -268 -114 -32 50 6 163 176 516 186 388
220 480 220 597 0 78 -16 118 -70 177 -50 54 -119 83 -218 92 -168 16 -362
-75 -588 -275 -37 -34 -72 -61 -76 -61 -4 0 3 30 17 66 14 37 25 84 25 107 0
84 -131 167 -263 167 -77 0 -118 -23 -148 -82 -26 -51 -29 -53 -144 -117 -87
-48 -283 -127 -292 -118 -2 3 9 61 26 128 53 218 61 286 61 522 0 264 -11 332
-77 467 -38 79 -60 109 -127 175 -180 178 -381 244 -611 200z m242 -347 c60
-15 114 -68 144 -144 22 -55 24 -72 24 -249 -1 -167 -4 -206 -28 -320 -27
-130 -110 -402 -131 -430 -10 -13 -18 -13 -70 1 -84 22 -150 58 -209 112 -111
105 -150 199 -151 367 0 143 27 253 99 399 58 120 117 196 192 245 52 34 64
36 130 19z m3595 -313 c18 -41 -14 -144 -102 -320 -95 -194 -218 -400 -308
-521 -64 -86 -290 -319 -299 -310 -12 11 78 244 169 441 233 503 484 833 540
710z m-4383 -443 c16 -137 34 -201 81 -298 47 -97 135 -196 228 -258 74 -49
207 -106 292 -127 30 -7 59 -16 64 -20 13 -11 -39 -157 -95 -265 -157 -306
-394 -565 -582 -636 -169 -64 -338 -28 -418 88 -41 60 -55 108 -64 219 -24
305 111 779 334 1175 62 108 141 234 145 229 2 -2 9 -50 15 -107z m8118 -343
c31 -65 -46 -255 -148 -363 -80 -86 -204 -178 -303 -226 -85 -40 -176 -74
-183 -67 -2 3 6 33 18 68 69 202 251 472 373 553 74 49 121 65 181 63 43 -2
52 -6 62 -28z"/>
<path d="M6348 5237 c-121 -34 -206 -146 -208 -270 -1 -135 107 -209 280 -193
178 16 269 104 270 260 0 91 -27 141 -100 180 -61 33 -168 43 -242 23z"/>
</g>
</svg>
